<svg xmlns="http://www.w3.org/2000/svg" xmlns:xlink="http://www.w3.org/1999/xlink" width="500" zoomAndPan="magnify" viewBox="0 0 375 374.999991" height="500" preserveAspectRatio="xMidYMid meet" version="1.0"><defs><g/><clipPath id="id1"><path d="M 63.542969 63.542969 L 311.792969 63.542969 L 311.792969 311.792969 L 63.542969 311.792969 Z M 63.542969 63.542969 " clip-rule="nonzero"/></clipPath><clipPath id="id2"><path d="M 101.4375 101.4375 L 273.1875 101.4375 L 273.1875 273.1875 L 101.4375 273.1875 Z M 101.4375 101.4375 " clip-rule="nonzero"/></clipPath><clipPath id="id3"><path d="M 121.714844 122 L 252.964844 122 L 252.964844 252.964844 L 121.714844 252.964844 Z M 121.714844 122 " clip-rule="nonzero"/></clipPath></defs><g clip-path="url(#id1)"><path fill="rgb(0%, 0%, 0%)" d="M 304.113281 220.765625 C 300.964844 231.480469 296.160156 241.644531 290.199219 251.007812 C 285.273438 258.625 279.675781 265.785156 273.386719 272.300781 C 272.570312 273.1875 271.664062 273.984375 270.800781 274.824219 C 269.921875 275.648438 269.070312 276.503906 268.171875 277.308594 L 265.445312 279.679688 L 264.082031 280.863281 L 262.667969 281.988281 L 259.84375 284.246094 C 258.886719 284.976562 257.898438 285.667969 256.929688 286.382812 C 255.015625 287.851562 252.976562 289.140625 250.984375 290.496094 C 250.695312 290.691406 250.394531 290.890625 250.078125 291.105469 C 249.753906 291.300781 249.414062 291.503906 249.0625 291.714844 C 248.359375 292.136719 247.601562 292.589844 246.792969 293.070312 C 245.199219 294.070312 243.316406 295.015625 241.28125 296.097656 C 240.765625 296.359375 240.253906 296.648438 239.710938 296.90625 C 239.167969 297.160156 238.613281 297.417969 238.046875 297.679688 C 236.914062 298.203125 235.742188 298.746094 234.535156 299.304688 C 232.054688 300.273438 229.46875 301.4375 226.648438 302.339844 C 215.511719 306.378906 201.613281 308.875 187.667969 308.933594 C 173.722656 308.875 159.824219 306.378906 148.6875 302.339844 C 145.867188 301.4375 143.28125 300.273438 140.800781 299.304688 C 139.59375 298.746094 138.421875 298.203125 137.289062 297.679688 C 136.722656 297.417969 136.167969 297.160156 135.621094 296.910156 C 135.082031 296.648438 134.570312 296.359375 134.054688 296.097656 C 132.019531 295.015625 130.132812 294.070312 128.542969 293.070312 C 127.734375 292.589844 126.976562 292.136719 126.273438 291.714844 C 125.921875 291.503906 125.582031 291.300781 125.257812 291.105469 C 124.945312 290.894531 124.640625 290.691406 124.355469 290.496094 C 116.777344 285.53125 109.660156 279.890625 103.191406 273.558594 C 96.363281 266.738281 90.398438 259.105469 85.140625 251.007812 C 79.175781 241.644531 74.371094 231.480469 71.222656 220.765625 C 67.945312 210.085938 66.429688 198.875 66.332031 187.667969 C 66.429688 176.457031 67.945312 165.25 71.222656 154.570312 C 74.371094 143.855469 79.175781 133.691406 85.136719 124.328125 C 90.0625 116.710938 95.660156 109.546875 101.949219 103.035156 C 102.761719 102.144531 103.671875 101.347656 104.535156 100.507812 C 105.414062 99.683594 106.265625 98.832031 107.164062 98.027344 L 109.890625 95.65625 L 111.253906 94.46875 L 112.667969 93.347656 L 115.492188 91.089844 C 116.449219 90.359375 117.433594 89.667969 118.402344 88.949219 C 120.320312 87.484375 122.355469 86.195312 124.351562 84.839844 C 124.640625 84.644531 124.941406 84.441406 125.257812 84.230469 C 125.582031 84.035156 125.921875 83.832031 126.273438 83.621094 C 126.976562 83.199219 127.734375 82.746094 128.539062 82.265625 C 130.132812 81.261719 132.019531 80.320312 134.054688 79.238281 C 134.566406 78.976562 135.082031 78.6875 135.621094 78.425781 C 136.167969 78.175781 136.722656 77.917969 137.289062 77.652344 C 138.417969 77.132812 139.59375 76.589844 140.800781 76.03125 C 143.28125 75.0625 145.867188 73.898438 148.6875 72.992188 C 159.824219 68.957031 173.71875 66.460938 187.667969 66.402344 C 201.613281 66.460938 215.511719 68.957031 226.644531 72.992188 C 229.46875 73.898438 232.050781 75.0625 234.535156 76.03125 C 235.742188 76.589844 236.914062 77.132812 238.046875 77.652344 C 238.613281 77.917969 239.167969 78.175781 239.710938 78.425781 C 240.253906 78.683594 240.765625 78.976562 241.277344 79.238281 C 243.3125 80.320312 245.199219 81.261719 246.792969 82.265625 C 247.601562 82.746094 248.359375 83.199219 249.0625 83.621094 C 249.414062 83.832031 249.75 84.035156 250.078125 84.230469 C 250.390625 84.441406 250.695312 84.644531 250.980469 84.835938 C 258.558594 89.804688 265.675781 95.441406 272.144531 101.777344 C 278.96875 108.59375 284.9375 116.230469 290.195312 124.328125 C 296.160156 133.691406 300.964844 143.855469 304.113281 154.570312 C 307.390625 165.25 308.90625 176.457031 309.003906 187.667969 C 308.90625 198.875 307.390625 210.085938 304.113281 220.765625 Z M 311.792969 187.585938 L 311.789062 187.574219 C 311.6875 176.128906 310.148438 164.679688 306.8125 153.757812 C 303.605469 142.804688 298.695312 132.410156 292.574219 122.859375 L 289.628906 118.4375 C 289.628906 118.4375 288.777344 117.246094 287.503906 115.460938 C 286.273438 113.640625 284.394531 111.394531 282.597656 109.085938 C 280.664062 106.894531 278.808594 104.632812 277.246094 103.089844 C 275.730469 101.507812 274.71875 100.453125 274.71875 100.453125 C 274.71875 100.453125 274.464844 100.191406 274.003906 99.75 C 273.542969 99.304688 272.886719 98.671875 272.101562 97.910156 C 270.5625 96.34375 268.332031 94.457031 266.140625 92.519531 C 265.015625 91.585938 263.863281 90.691406 262.792969 89.832031 C 262.257812 89.40625 261.738281 88.996094 261.25 88.605469 C 260.738281 88.238281 260.257812 87.890625 259.8125 87.570312 C 258.035156 86.285156 256.851562 85.429688 256.851562 85.429688 C 256.851562 85.429688 256.59375 85.222656 256.175781 84.949219 C 255.761719 84.675781 255.210938 84.304688 254.660156 83.9375 C 253.554688 83.199219 252.453125 82.460938 252.453125 82.460938 C 252.160156 82.261719 251.851562 82.054688 251.527344 81.835938 C 251.195312 81.632812 250.851562 81.425781 250.492188 81.207031 C 249.773438 80.773438 248.996094 80.3125 248.175781 79.816406 C 246.542969 78.789062 244.617188 77.820312 242.535156 76.710938 C 242.011719 76.4375 241.484375 76.144531 240.933594 75.878906 C 240.375 75.617188 239.808594 75.351562 239.230469 75.082031 C 238.070312 74.546875 236.871094 73.992188 235.632812 73.417969 C 233.097656 72.421875 230.449219 71.230469 227.5625 70.300781 C 216.167969 66.164062 201.9375 63.597656 187.667969 63.542969 C 173.398438 63.597656 159.167969 66.164062 147.769531 70.304688 C 144.886719 71.230469 142.238281 72.421875 139.699219 73.417969 C 138.460938 73.992188 137.261719 74.546875 136.105469 75.085938 C 135.527344 75.355469 134.957031 75.617188 134.402344 75.878906 C 133.847656 76.144531 133.324219 76.4375 132.800781 76.710938 C 130.71875 77.820312 128.789062 78.789062 127.160156 79.816406 C 126.335938 80.3125 125.5625 80.777344 124.84375 81.207031 C 124.484375 81.425781 124.136719 81.636719 123.804688 81.835938 C 123.484375 82.054688 123.175781 82.261719 122.878906 82.460938 C 122.878906 82.460938 121.777344 83.199219 120.675781 83.9375 C 120.125 84.304688 119.574219 84.675781 119.160156 84.953125 C 118.742188 85.222656 118.484375 85.429688 118.484375 85.429688 C 118.484375 85.429688 117.300781 86.285156 115.523438 87.570312 C 115.078125 87.890625 114.597656 88.238281 114.085938 88.605469 C 113.59375 88.996094 113.078125 89.40625 112.542969 89.832031 C 111.472656 90.691406 110.316406 91.585938 109.195312 92.519531 C 107.003906 94.457031 104.773438 96.34375 103.234375 97.910156 C 102.445312 98.671875 101.789062 99.304688 101.332031 99.75 C 100.871094 100.191406 100.613281 100.453125 100.613281 100.453125 C 100.613281 100.453125 99.605469 101.507812 98.085938 103.089844 C 96.527344 104.632812 94.671875 106.894531 92.738281 109.085938 C 90.941406 111.394531 89.058594 113.640625 87.832031 115.460938 C 86.554688 117.246094 85.703125 118.4375 85.703125 118.4375 L 82.761719 122.859375 C 76.640625 132.410156 71.726562 142.808594 68.519531 153.757812 C 65.1875 164.679688 63.648438 176.132812 63.546875 187.578125 L 63.542969 187.585938 L 63.542969 187.75 L 63.546875 187.761719 C 63.648438 199.203125 65.1875 210.65625 68.519531 221.574219 C 71.726562 232.53125 76.640625 242.925781 82.761719 252.476562 L 85.707031 256.898438 C 85.707031 256.898438 86.558594 258.089844 87.832031 259.875 C 89.0625 261.695312 90.941406 263.9375 92.738281 266.246094 C 94.671875 268.4375 96.527344 270.703125 98.085938 272.242188 C 99.605469 273.824219 100.613281 274.882812 100.613281 274.882812 C 100.613281 274.882812 100.871094 275.144531 101.332031 275.585938 C 101.789062 276.027344 102.445312 276.664062 103.234375 277.425781 C 104.773438 278.992188 107.003906 280.878906 109.195312 282.816406 C 110.316406 283.75 111.472656 284.640625 112.542969 285.5 C 113.078125 285.929688 113.59375 286.339844 114.085938 286.730469 C 114.597656 287.097656 115.078125 287.445312 115.523438 287.765625 C 117.300781 289.050781 118.484375 289.902344 118.484375 289.902344 C 118.484375 289.902344 118.742188 290.113281 119.160156 290.382812 C 119.574219 290.660156 120.125 291.027344 120.675781 291.398438 C 121.777344 292.136719 122.882812 292.875 122.882812 292.875 C 123.175781 293.074219 123.484375 293.28125 123.804688 293.5 C 124.136719 293.699219 124.484375 293.910156 124.84375 294.125 C 125.5625 294.558594 126.335938 295.023438 127.160156 295.519531 C 128.789062 296.546875 130.71875 297.515625 132.800781 298.625 C 133.324219 298.894531 133.851562 299.191406 134.402344 299.457031 C 134.960938 299.71875 135.527344 299.980469 136.105469 300.25 C 137.261719 300.789062 138.464844 301.34375 139.703125 301.917969 C 142.238281 302.914062 144.886719 304.101562 147.773438 305.03125 C 159.167969 309.171875 173.398438 311.734375 187.667969 311.792969 C 201.9375 311.734375 216.167969 309.171875 227.5625 305.03125 C 230.449219 304.101562 233.097656 302.914062 235.636719 301.917969 C 236.871094 301.34375 238.070312 300.789062 239.230469 300.25 C 239.808594 299.980469 240.375 299.714844 240.933594 299.457031 C 241.484375 299.191406 242.011719 298.894531 242.535156 298.625 C 244.617188 297.515625 246.546875 296.546875 248.175781 295.519531 C 249 295.023438 249.773438 294.558594 250.492188 294.125 C 250.851562 293.910156 251.199219 293.699219 251.527344 293.5 C 251.851562 293.28125 252.160156 293.074219 252.453125 292.875 C 252.453125 292.875 253.554688 292.136719 254.660156 291.398438 C 255.210938 291.027344 255.761719 290.660156 256.175781 290.382812 C 256.59375 290.113281 256.851562 289.902344 256.851562 289.902344 C 256.851562 289.902344 258.035156 289.050781 259.8125 287.765625 C 260.257812 287.445312 260.738281 287.097656 261.25 286.730469 C 261.738281 286.339844 262.257812 285.929688 262.792969 285.5 C 263.863281 284.640625 265.015625 283.75 266.140625 282.816406 C 268.332031 280.878906 270.5625 278.992188 272.101562 277.425781 C 272.886719 276.664062 273.542969 276.027344 274.003906 275.585938 C 274.464844 275.144531 274.71875 274.882812 274.71875 274.882812 C 274.71875 274.882812 275.730469 273.824219 277.246094 272.242188 C 278.808594 270.703125 280.664062 268.4375 282.597656 266.246094 C 284.394531 263.9375 286.273438 261.695312 287.503906 259.875 C 288.777344 258.089844 289.628906 256.898438 289.628906 256.898438 L 292.574219 252.476562 C 298.695312 242.925781 303.605469 232.527344 306.8125 221.574219 C 310.148438 210.65625 311.6875 199.203125 311.789062 187.757812 L 311.792969 187.75 L 311.792969 187.585938 " fill-opacity="1" fill-rule="nonzero"/></g><g clip-path="url(#id2)"><path fill="rgb(0%, 0%, 0%)" d="M 267.875 210.210938 C 265.699219 217.625 262.375 224.65625 258.25 231.132812 C 254.84375 236.40625 250.96875 241.359375 246.617188 245.867188 C 246.054688 246.480469 245.425781 247.03125 244.828125 247.613281 C 244.222656 248.183594 243.632812 248.773438 243.011719 249.332031 L 241.125 250.972656 L 240.179688 251.792969 L 239.203125 252.570312 L 237.25 254.128906 C 236.585938 254.636719 235.902344 255.113281 235.234375 255.609375 C 233.910156 256.625 232.5 257.515625 231.117188 258.457031 C 230.917969 258.589844 230.710938 258.730469 230.492188 258.875 C 230.265625 259.011719 230.035156 259.152344 229.789062 259.296875 C 229.304688 259.589844 228.777344 259.902344 228.222656 260.234375 C 227.117188 260.929688 225.8125 261.582031 224.40625 262.328125 C 224.050781 262.511719 223.695312 262.710938 223.320312 262.890625 C 222.945312 263.066406 222.5625 263.246094 222.167969 263.425781 C 221.386719 263.789062 220.574219 264.164062 219.738281 264.550781 C 218.023438 265.21875 216.234375 266.027344 214.28125 266.652344 C 206.578125 269.445312 196.964844 271.171875 187.3125 271.210938 C 177.664062 271.171875 168.050781 269.445312 160.347656 266.652344 C 158.394531 266.027344 156.605469 265.21875 154.890625 264.550781 C 154.054688 264.164062 153.242188 263.789062 152.460938 263.425781 C 152.066406 263.246094 151.683594 263.066406 151.308594 262.890625 C 150.933594 262.710938 150.578125 262.511719 150.222656 262.328125 C 148.816406 261.582031 147.511719 260.929688 146.410156 260.238281 C 145.851562 259.902344 145.324219 259.589844 144.839844 259.296875 C 144.597656 259.152344 144.363281 259.011719 144.136719 258.875 C 143.917969 258.730469 143.710938 258.589844 143.511719 258.457031 C 138.269531 255.019531 133.34375 251.117188 128.867188 246.734375 C 124.148438 242.019531 120.019531 236.738281 116.378906 231.136719 C 112.253906 224.65625 108.929688 217.625 106.75 210.210938 C 104.484375 202.824219 103.4375 195.070312 103.367188 187.3125 C 103.4375 179.558594 104.484375 171.804688 106.75 164.417969 C 108.929688 157.003906 112.253906 149.972656 116.378906 143.492188 C 119.785156 138.222656 123.660156 133.269531 128.011719 128.761719 C 128.574219 128.144531 129.203125 127.59375 129.800781 127.015625 C 130.40625 126.445312 130.996094 125.855469 131.617188 125.296875 L 133.503906 123.65625 L 134.449219 122.835938 L 135.425781 122.058594 L 137.378906 120.496094 C 138.042969 119.992188 138.722656 119.511719 139.394531 119.015625 C 140.71875 118.003906 142.128906 117.109375 143.511719 116.171875 C 143.707031 116.039062 143.917969 115.898438 144.136719 115.753906 C 144.359375 115.617188 144.59375 115.476562 144.839844 115.328125 C 145.324219 115.039062 145.847656 114.726562 146.40625 114.390625 C 147.511719 113.699219 148.816406 113.046875 150.222656 112.296875 C 150.578125 112.117188 150.933594 111.917969 151.308594 111.738281 C 151.683594 111.5625 152.066406 111.382812 152.457031 111.203125 C 153.242188 110.839844 154.054688 110.464844 154.890625 110.078125 C 156.605469 109.40625 158.394531 108.601562 160.347656 107.976562 C 168.050781 105.183594 177.664062 103.457031 187.3125 103.417969 C 196.960938 103.457031 206.578125 105.183594 214.28125 107.976562 C 216.234375 108.601562 218.023438 109.40625 219.738281 110.078125 C 220.574219 110.464844 221.386719 110.839844 222.167969 111.203125 C 222.558594 111.382812 222.945312 111.5625 223.320312 111.734375 C 223.695312 111.914062 224.050781 112.117188 224.40625 112.296875 C 225.8125 113.046875 227.117188 113.699219 228.21875 114.390625 C 228.777344 114.726562 229.300781 115.039062 229.789062 115.328125 C 230.03125 115.476562 230.265625 115.617188 230.492188 115.753906 C 230.710938 115.898438 230.917969 116.039062 231.117188 116.171875 C 236.359375 119.605469 241.285156 123.507812 245.757812 127.890625 C 250.480469 132.609375 254.609375 137.890625 258.246094 143.492188 C 262.375 149.96875 265.699219 157.003906 267.875 164.417969 C 270.144531 171.804688 271.191406 179.558594 271.257812 187.3125 C 271.191406 195.070312 270.144531 202.824219 267.875 210.210938 Z M 273.1875 187.257812 L 273.1875 187.25 C 273.117188 179.332031 272.050781 171.410156 269.746094 163.855469 C 267.527344 156.277344 264.128906 149.082031 259.890625 142.476562 L 257.855469 139.417969 C 257.855469 139.417969 257.265625 138.59375 256.382812 137.359375 C 255.535156 136.097656 254.234375 134.546875 252.992188 132.949219 C 251.652344 131.433594 250.367188 129.867188 249.289062 128.800781 C 248.242188 127.707031 247.542969 126.976562 247.542969 126.976562 C 247.542969 126.976562 247.363281 126.796875 247.046875 126.488281 C 246.726562 126.183594 246.273438 125.742188 245.726562 125.214844 C 244.664062 124.132812 243.121094 122.828125 241.605469 121.488281 C 240.828125 120.839844 240.027344 120.222656 239.289062 119.628906 C 238.917969 119.332031 238.558594 119.046875 238.21875 118.777344 C 237.867188 118.523438 237.535156 118.285156 237.226562 118.0625 C 235.996094 117.171875 235.175781 116.582031 235.175781 116.582031 C 235.175781 116.582031 235 116.4375 234.710938 116.25 C 234.421875 116.058594 234.042969 115.804688 233.664062 115.546875 C 232.898438 115.039062 232.136719 114.527344 232.136719 114.527344 C 231.933594 114.390625 231.71875 114.246094 231.496094 114.09375 C 231.265625 113.957031 231.027344 113.8125 230.777344 113.660156 C 230.28125 113.359375 229.746094 113.039062 229.175781 112.699219 C 228.046875 111.988281 226.714844 111.316406 225.273438 110.550781 C 224.910156 110.359375 224.546875 110.15625 224.164062 109.972656 C 223.78125 109.792969 223.386719 109.609375 222.988281 109.421875 C 222.1875 109.050781 221.355469 108.667969 220.5 108.269531 C 218.742188 107.582031 216.914062 106.757812 214.914062 106.117188 C 207.03125 103.253906 197.1875 101.476562 187.3125 101.4375 C 177.441406 101.476562 167.597656 103.253906 159.710938 106.117188 C 157.714844 106.757812 155.882812 107.582031 154.128906 108.273438 C 153.273438 108.667969 152.441406 109.050781 151.640625 109.425781 C 151.242188 109.609375 150.847656 109.792969 150.460938 109.972656 C 150.078125 110.15625 149.714844 110.359375 149.355469 110.550781 C 147.914062 111.316406 146.578125 111.988281 145.453125 112.699219 C 144.882812 113.039062 144.347656 113.363281 143.847656 113.660156 C 143.601562 113.8125 143.359375 113.957031 143.132812 114.09375 C 142.910156 114.246094 142.695312 114.390625 142.492188 114.527344 C 142.492188 114.527344 141.730469 115.039062 140.964844 115.546875 C 140.585938 115.804688 140.203125 116.058594 139.917969 116.25 C 139.628906 116.4375 139.449219 116.582031 139.449219 116.582031 C 139.449219 116.582031 138.628906 117.171875 137.402344 118.0625 C 137.09375 118.285156 136.761719 118.523438 136.40625 118.777344 C 136.066406 119.046875 135.710938 119.332031 135.339844 119.628906 C 134.601562 120.222656 133.800781 120.839844 133.023438 121.488281 C 131.507812 122.828125 129.964844 124.132812 128.898438 125.214844 C 128.355469 125.742188 127.902344 126.183594 127.582031 126.488281 C 127.265625 126.796875 127.085938 126.976562 127.085938 126.976562 C 127.085938 126.976562 126.386719 127.707031 125.339844 128.800781 C 124.257812 129.867188 122.976562 131.433594 121.636719 132.949219 C 120.394531 134.546875 119.09375 136.097656 118.242188 137.359375 C 117.359375 138.59375 116.773438 139.417969 116.773438 139.417969 L 114.734375 142.476562 C 110.5 149.082031 107.101562 156.277344 104.882812 163.855469 C 102.578125 171.410156 101.511719 179.332031 101.441406 187.25 L 101.441406 187.257812 L 101.4375 187.3125 L 101.441406 187.371094 L 101.441406 187.378906 C 101.511719 195.296875 102.578125 203.21875 104.882812 210.773438 C 107.101562 218.351562 110.5 225.542969 114.734375 232.152344 L 116.773438 235.210938 C 116.773438 235.210938 117.363281 236.035156 118.242188 237.269531 C 119.09375 238.53125 120.394531 240.082031 121.636719 241.679688 C 122.976562 243.195312 124.257812 244.761719 125.339844 245.828125 C 126.386719 246.921875 127.085938 247.652344 127.085938 247.652344 C 127.085938 247.652344 127.265625 247.832031 127.582031 248.140625 C 127.902344 248.445312 128.355469 248.886719 128.898438 249.414062 C 129.964844 250.496094 131.507812 251.800781 133.023438 253.140625 C 133.800781 253.785156 134.601562 254.40625 135.339844 255 C 135.710938 255.296875 136.066406 255.578125 136.40625 255.851562 C 136.761719 256.105469 137.09375 256.34375 137.402344 256.566406 C 138.628906 257.453125 139.449219 258.046875 139.449219 258.046875 C 139.449219 258.046875 139.628906 258.191406 139.917969 258.378906 C 140.203125 258.570312 140.585938 258.824219 140.964844 259.078125 C 141.730469 259.589844 142.492188 260.101562 142.492188 260.101562 C 142.695312 260.238281 142.910156 260.382812 143.132812 260.53125 C 143.363281 260.671875 143.601562 260.816406 143.847656 260.96875 C 144.347656 261.265625 144.882812 261.589844 145.453125 261.929688 C 146.582031 262.640625 147.914062 263.3125 149.355469 264.078125 C 149.71875 264.265625 150.082031 264.472656 150.464844 264.65625 C 150.847656 264.835938 151.242188 265.019531 151.640625 265.203125 C 152.441406 265.574219 153.273438 265.960938 154.128906 266.355469 C 155.882812 267.046875 157.714844 267.871094 159.710938 268.511719 C 167.597656 271.375 177.441406 273.148438 187.3125 273.1875 C 197.1875 273.148438 207.03125 271.375 214.917969 268.511719 C 216.914062 267.871094 218.746094 267.046875 220.5 266.355469 C 221.355469 265.960938 222.1875 265.574219 222.988281 265.203125 C 223.386719 265.015625 223.78125 264.835938 224.164062 264.65625 C 224.546875 264.472656 224.910156 264.265625 225.273438 264.078125 C 226.714844 263.3125 228.046875 262.640625 229.175781 261.929688 C 229.746094 261.589844 230.28125 261.265625 230.78125 260.96875 C 231.027344 260.816406 231.265625 260.671875 231.496094 260.53125 C 231.71875 260.382812 231.933594 260.238281 232.136719 260.101562 C 232.136719 260.101562 232.898438 259.589844 233.664062 259.078125 C 234.042969 258.824219 234.425781 258.570312 234.710938 258.378906 C 235 258.191406 235.175781 258.046875 235.175781 258.046875 C 235.175781 258.046875 235.996094 257.453125 237.226562 256.566406 C 237.535156 256.34375 237.867188 256.105469 238.21875 255.851562 C 238.558594 255.578125 238.917969 255.296875 239.289062 255 C 240.027344 254.40625 240.828125 253.785156 241.605469 253.140625 C 243.121094 251.800781 244.664062 250.496094 245.726562 249.414062 C 246.273438 248.886719 246.726562 248.445312 247.046875 248.140625 C 247.363281 247.832031 247.542969 247.652344 247.542969 247.652344 C 247.542969 247.652344 248.242188 246.921875 249.289062 245.828125 C 250.367188 244.761719 251.652344 243.195312 252.992188 241.679688 C 254.234375 240.082031 255.535156 238.527344 256.382812 237.269531 C 257.265625 236.035156 257.855469 235.210938 257.855469 235.210938 L 259.890625 232.152344 C 264.128906 225.542969 267.527344 218.351562 269.746094 210.773438 C 272.050781 203.21875 273.117188 195.296875 273.1875 187.378906 L 273.1875 187.257812 " fill-opacity="1" fill-rule="nonzero"/></g><g fill="rgb(0%, 0%, 0%)" fill-opacity="1"><g transform="translate(93.602567, 165.666891)"><g><path d="M -11.527344 -9.746094 L -12.820312 -5.910156 L 0.480469 -1.425781 L 1.769531 -5.246094 C 3.222656 -9.558594 0.601562 -12.515625 -2.800781 -13.660156 C -6.242188 -14.820312 -9.996094 -14.289062 -11.527344 -9.746094 Z M -0.480469 -5.980469 L -0.878906 -4.804688 L -9.695312 -7.773438 L -9.3125 -8.914062 C -8.421875 -11.554688 -6.15625 -11.808594 -3.703125 -10.980469 C -1.273438 -10.164062 0.339844 -8.414062 -0.480469 -5.980469 Z M -0.480469 -5.980469 "/></g></g></g><g fill="rgb(0%, 0%, 0%)" fill-opacity="1"><g transform="translate(99.082572, 150.450351)"><g><path d="M -0.109375 -4.871094 L -3.488281 -6.632812 L -1.21875 -10.988281 L -3.210938 -12.027344 L -5.480469 -7.667969 L -8.414062 -9.195312 L -5.941406 -13.945312 L -8.003906 -15.019531 L -11.753906 -7.816406 L 0.695312 -1.332031 L 4.527344 -8.695312 L 2.445312 -9.78125 Z M -0.109375 -4.871094 "/></g></g></g><g fill="rgb(0%, 0%, 0%)" fill-opacity="1"><g transform="translate(105.81159, 138.054373)"><g><path d="M 3.046875 -3.859375 C 4.816406 -6.316406 4.632812 -8.84375 2.582031 -10.320312 C 0.660156 -11.703125 -1.09375 -11.085938 -3.132812 -9.761719 C -4.664062 -8.761719 -5.484375 -8.515625 -6.265625 -9.078125 C -7.015625 -9.613281 -7.015625 -10.503906 -6.269531 -11.546875 C -5.601562 -12.476562 -4.707031 -13.339844 -3.710938 -14.003906 L -5.648438 -15.398438 C -6.65625 -14.714844 -7.542969 -13.894531 -8.480469 -12.59375 C -10.046875 -10.414062 -9.835938 -8.234375 -7.898438 -6.839844 C -6.304688 -5.695312 -4.585938 -5.816406 -2.351562 -7.273438 C -0.585938 -8.421875 0.152344 -8.558594 0.902344 -8.019531 C 1.8125 -7.363281 1.820312 -6.273438 0.859375 -4.9375 C 0.132812 -3.929688 -0.808594 -3.101562 -1.9375 -2.355469 L 0.0664062 -0.914062 C 1.039062 -1.550781 2.0625 -2.492188 3.046875 -3.859375 Z M 3.046875 -3.859375 "/></g></g></g><g fill="rgb(0%, 0%, 0%)" fill-opacity="1"><g transform="translate(114.104483, 126.920424)"><g><path d="M 1.273438 -4.703125 L -1.46875 -7.347656 L 1.941406 -10.882812 L 0.324219 -12.441406 L -3.085938 -8.90625 L -5.46875 -11.203125 L -1.753906 -15.054688 L -3.425781 -16.671875 L -9.0625 -10.824219 L 1.042969 -1.082031 L 6.804688 -7.058594 L 5.117188 -8.6875 Z M 1.273438 -4.703125 "/></g></g></g><g fill="rgb(0%, 0%, 0%)" fill-opacity="1"><g transform="translate(123.961385, 116.912135)"><g><path d="M 8.476562 -6.34375 L 9.546875 -7.152344 L 1.070312 -18.390625 L -1.058594 -16.785156 L 2.636719 -11.886719 C 3.046875 -11.34375 3.484375 -10.792969 3.953125 -10.242188 L 3.921875 -10.21875 C 3.316406 -10.386719 2.863281 -10.523438 2.238281 -10.683594 L -6.171875 -12.976562 L -7.277344 -12.144531 L 1.199219 -0.90625 L 3.328125 -2.511719 L -0.621094 -7.746094 C -0.945312 -8.179688 -1.285156 -8.625 -1.648438 -9.078125 L -1.617188 -9.101562 L 0.199219 -8.589844 Z M 8.476562 -6.34375 "/></g></g></g><g fill="rgb(0%, 0%, 0%)" fill-opacity="1"><g transform="translate(137.40563, 107.119708)"><g><path d="M 5.058594 -2.523438 L 6.753906 -3.398438 L 5.277344 -18.527344 L 2.625 -17.15625 L 3.40625 -10.132812 C 3.546875 -9.035156 3.679688 -8.039062 3.890625 -6.976562 L 3.835938 -6.949219 C 3.109375 -7.746094 2.382812 -8.40625 1.574219 -9.140625 L -3.71875 -13.878906 L -6.40625 -12.488281 Z M 5.058594 -2.523438 "/></g></g></g><g fill="rgb(0%, 0%, 0%)" fill-opacity="1"><g transform="translate(152.10996, 99.799809)"><g><path d="M 6.683594 -1.8125 C 10.640625 -3.0625 11.503906 -6.71875 10.28125 -10.601562 C 9.058594 -14.484375 6.210938 -16.972656 2.292969 -15.734375 C -1.628906 -14.5 -2.519531 -10.855469 -1.289062 -6.953125 C -0.0625 -3.070312 2.742188 -0.570312 6.683594 -1.8125 Z M 5.953125 -4.125 C 3.695312 -3.414062 2.179688 -5.355469 1.410156 -7.804688 C 0.640625 -10.230469 0.746094 -12.703125 3.023438 -13.421875 C 5.296875 -14.136719 6.820312 -12.179688 7.585938 -9.75 C 8.355469 -7.304688 8.226562 -4.84375 5.953125 -4.125 Z M 5.953125 -4.125 "/></g></g></g><g fill="rgb(0%, 0%, 0%)" fill-opacity="1"><g transform="translate(168.542004, 95.041203)"><g><path d="M 1.488281 -0.222656 L 9.558594 -1.441406 L 9.195312 -3.84375 L 3.859375 -3.035156 L 2.128906 -14.515625 L -0.609375 -14.105469 Z M 1.488281 -0.222656 "/></g></g></g><g fill="rgb(0%, 0%, 0%)" fill-opacity="1"><g transform="translate(181.679865, 93.185988)"><g><path d="M 5.65625 0.0976562 L 7.558594 0.101562 L 13.234375 -14 L 10.246094 -14.007812 L 7.699219 -7.417969 C 7.316406 -6.375 6.972656 -5.433594 6.667969 -4.394531 L 6.609375 -4.394531 C 6.332031 -5.4375 5.992188 -6.359375 5.613281 -7.382812 L 3.105469 -14.027344 L 0.078125 -14.035156 Z M 5.65625 0.0976562 "/></g></g></g><g fill="rgb(0%, 0%, 0%)" fill-opacity="1"><g transform="translate(198.15988, 93.581338)"><g><path d="M 4.589844 -1.640625 L 5.191406 -5.402344 L 10.042969 -4.621094 L 10.398438 -6.839844 L 5.550781 -7.617188 L 6.074219 -10.886719 L 11.359375 -10.035156 L 11.730469 -12.332031 L 3.710938 -13.621094 L 1.484375 0.238281 L 9.679688 1.554688 L 10.054688 -0.761719 Z M 4.589844 -1.640625 "/></g></g></g><g fill="rgb(0%, 0%, 0%)" fill-opacity="1"><g transform="translate(212.010918, 95.978227)"><g><path d="M 9.621094 -11.632812 L 5.769531 -12.882812 L 1.429688 0.464844 L 5.261719 1.710938 C 9.59375 3.117188 12.519531 0.464844 13.628906 -2.949219 C 14.75 -6.402344 14.179688 -10.152344 9.621094 -11.632812 Z M 5.976562 -0.546875 L 4.792969 -0.929688 L 7.667969 -9.777344 L 8.8125 -9.40625 C 11.464844 -8.546875 11.742188 -6.285156 10.941406 -3.824219 C 10.148438 -1.382812 8.417969 0.246094 5.976562 -0.546875 Z M 5.976562 -0.546875 "/></g></g></g><g fill="rgb(0%, 0%, 0%)" fill-opacity="1"><g transform="translate(227.261586, 101.177914)"><g><path d="M 5.992188 3.46875 C 9.667969 5.398438 12.871094 3.4375 14.765625 -0.164062 C 16.660156 -3.765625 16.425781 -7.539062 12.785156 -9.453125 C 9.148438 -11.367188 5.933594 -9.429688 4.03125 -5.808594 C 2.136719 -2.207031 2.335938 1.546875 5.992188 3.46875 Z M 7.121094 1.320312 C 5.027344 0.21875 5.335938 -2.222656 6.53125 -4.496094 C 7.71875 -6.75 9.546875 -8.414062 11.65625 -7.304688 C 13.769531 -6.195312 13.449219 -3.734375 12.265625 -1.480469 C 11.070312 0.792969 9.234375 2.429688 7.121094 1.320312 Z M 7.121094 1.320312 "/></g></g></g><g fill="rgb(0%, 0%, 0%)" fill-opacity="1"><g transform="translate(242.204607, 109.415731)"><g><path d="M 9.40625 -0.0742188 C 11.359375 1.132812 13.476562 0.601562 14.75 -1.074219 C 16.5 -3.371094 16 -5.464844 13.238281 -7.5625 L 9.695312 -10.257812 L 1.195312 0.910156 L 3.398438 2.585938 L 5.914062 -0.714844 L 6.933594 -2.058594 L 6.949219 -2.046875 C 6.894531 -1.480469 6.890625 -0.878906 6.867188 -0.316406 L 6.765625 5.148438 L 9.351562 7.117188 Z M 7.878906 -3.300781 L 10.539062 -6.796875 L 11.671875 -5.933594 C 13.074219 -4.867188 13.3125 -3.855469 12.425781 -2.6875 C 11.503906 -1.476562 10.402344 -1.382812 9.011719 -2.441406 Z M 7.878906 -3.300781 "/></g></g></g><g fill="rgb(0%, 0%, 0%)" fill-opacity="1"><g transform="translate(259.955148, 124.236155)"><g><path d="M 2.558594 3.496094 L 3.484375 4.707031 L 10.128906 2.773438 C 10.960938 2.542969 11.796875 2.28125 12.617188 2.035156 L 12.640625 2.066406 C 12.179688 2.722656 11.730469 3.390625 11.324219 4.078125 L 7.613281 10.128906 L 8.539062 11.34375 L 22.332031 6.15625 L 20.570312 3.84375 L 14.539062 6.117188 C 13.601562 6.476562 12.722656 6.84375 11.945312 7.210938 L 11.90625 7.164062 C 12.359375 6.566406 12.894531 5.808594 13.390625 5.074219 L 16.757812 -0.238281 L 15.945312 -1.304688 L 9.660156 0.605469 C 8.914062 0.847656 8.207031 1.109375 7.496094 1.371094 L 7.472656 1.339844 C 7.984375 0.722656 8.652344 -0.0898438 9.179688 -0.789062 L 13.011719 -6.078125 L 11.238281 -8.410156 Z M 2.558594 3.496094 "/></g></g></g><g fill="rgb(0%, 0%, 0%)" fill-opacity="1"><g transform="translate(272.566787, 141.851541)"><g><path d="M 4.023438 2.75 L 7.421875 1.03125 L 9.640625 5.414062 L 11.644531 4.402344 L 9.425781 0.015625 L 12.378906 -1.476562 L 14.792969 3.300781 L 16.871094 2.25 L 13.203125 -4.996094 L 0.679688 1.34375 L 4.425781 8.75 L 6.519531 7.691406 Z M 4.023438 2.75 "/></g></g></g><g fill="rgb(0%, 0%, 0%)" fill-opacity="1"><g transform="translate(278.734589, 154.509861)"><g><path d="M 9.863281 5.882812 C 10.625 6.644531 11.835938 6.984375 13.148438 6.550781 C 15.394531 5.808594 16.058594 3.855469 15.175781 1.191406 L 13.800781 -2.976562 L 0.472656 1.429688 L 1.933594 5.84375 C 2.933594 8.871094 4.820312 9.980469 7.351562 9.144531 C 9.007812 8.59375 9.859375 7.46875 9.863281 5.882812 Z M 11.9375 4.164062 C 10.832031 4.527344 10.023438 3.992188 9.636719 2.832031 L 9.164062 1.40625 L 12.515625 0.296875 L 13.007812 1.78125 C 13.402344 2.980469 13.097656 3.78125 11.9375 4.164062 Z M 3.984375 4.890625 L 3.453125 3.292969 L 7.320312 2.015625 L 7.847656 3.613281 C 8.320312 5.042969 7.917969 6 6.640625 6.421875 C 5.308594 6.859375 4.472656 6.378906 3.984375 4.890625 Z M 3.984375 4.890625 "/></g></g></g><g fill="rgb(0%, 0%, 0%)" fill-opacity="1"><g transform="translate(105.903918, 259.857694)"><g><path d="M 3.804688 1.148438 L 6.023438 -1.027344 L 8.828125 1.835938 L 10.136719 0.554688 L 7.332031 -2.308594 L 9.257812 -4.195312 L 12.316406 -1.078125 L 13.667969 -2.40625 L 9.035156 -7.136719 L 0.859375 0.875 L 5.597656 5.710938 L 6.964844 4.371094 Z M 3.804688 1.148438 "/></g></g></g><g fill="rgb(0%, 0%, 0%)" fill-opacity="1"><g transform="translate(114.879307, 268.754681)"><g><path d="M 10.671875 -6.136719 L 8.089844 -8.191406 L 0.960938 0.765625 L 3.53125 2.8125 C 6.4375 5.121094 9.429688 3.933594 11.253906 1.644531 C 13.097656 -0.671875 13.730469 -3.699219 10.671875 -6.136719 Z M 4.71875 1.289062 L 3.925781 0.660156 L 8.652344 -5.277344 L 9.421875 -4.664062 C 11.199219 -3.25 10.765625 -1.445312 9.449219 0.207031 C 8.144531 1.84375 6.359375 2.59375 4.71875 1.289062 Z M 4.71875 1.289062 "/></g></g></g><g fill="rgb(0%, 0%, 0%)" fill-opacity="1"><g transform="translate(126.256248, 277.369551)"><g><path d="M 1.035156 0.660156 L 2.933594 1.875 L 9.097656 -7.769531 L 7.195312 -8.984375 Z M 1.035156 0.660156 "/></g></g></g><g fill="rgb(0%, 0%, 0%)" fill-opacity="1"><g transform="translate(133.417978, 281.911719)"><g><path d="M 4.949219 2.714844 C 7.980469 4.222656 10.558594 2.5625 12.035156 -0.410156 C 13.515625 -3.382812 13.25 -6.453125 10.246094 -7.945312 C 7.246094 -9.4375 4.660156 -7.800781 3.175781 -4.8125 C 1.699219 -1.839844 1.933594 1.214844 4.949219 2.714844 Z M 5.832031 0.945312 C 4.101562 0.0859375 4.308594 -1.914062 5.242188 -3.785156 C 6.164062 -5.648438 7.625 -7.039062 9.367188 -6.175781 C 11.109375 -5.308594 10.894531 -3.296875 9.972656 -1.4375 C 9.039062 0.4375 7.574219 1.808594 5.832031 0.945312 Z M 5.832031 0.945312 "/></g></g></g><g fill="rgb(0%, 0%, 0%)" fill-opacity="1"><g transform="translate(147.152275, 288.421423)"><g><path d="M 4.351562 1.535156 L 5.820312 2.027344 L 13.851562 -7.414062 L 11.539062 -8.191406 L 7.871094 -3.75 C 7.304688 -3.042969 6.796875 -2.40625 6.292969 -1.675781 L 6.246094 -1.691406 C 6.300781 -2.570312 6.277344 -3.375 6.25 -4.261719 L 6.023438 -10.050781 L 3.683594 -10.839844 Z M 4.351562 1.535156 "/></g></g></g><g fill="rgb(0%, 0%, 0%)" fill-opacity="1"><g transform="translate(161.142928, 292.849937)"><g><path d="M 7.867188 1.527344 L 10.386719 2.019531 L 8.085938 -10.15625 L 6.578125 -10.449219 L -0.03125 -0.0078125 L 2.390625 0.464844 L 3.5 -1.386719 L 7.546875 -0.597656 Z M 5.742188 -5.296875 C 6.0625 -5.820312 6.347656 -6.347656 6.648438 -6.871094 L 6.699219 -6.863281 C 6.746094 -6.253906 6.804688 -5.691406 6.914062 -5.070312 L 7.390625 -2.378906 L 4.34375 -2.972656 Z M 5.742188 -5.296875 "/></g></g></g><g fill="rgb(0%, 0%, 0%)" fill-opacity="1"><g transform="translate(175.357347, 295.361772)"><g><path d="M 8.617188 0.535156 L 9.710938 0.601562 L 10.382812 -10.859375 L 8.210938 -10.988281 L 7.917969 -5.992188 C 7.886719 -5.4375 7.867188 -4.863281 7.867188 -4.273438 L 7.835938 -4.277344 C 7.546875 -4.703125 7.335938 -5.027344 7.035156 -5.453125 L 3.019531 -11.324219 L 1.894531 -11.390625 L 1.222656 0.0703125 L 3.394531 0.199219 L 3.707031 -5.140625 C 3.734375 -5.582031 3.761719 -6.039062 3.769531 -6.511719 L 3.804688 -6.511719 L 4.664062 -5.230469 Z M 8.617188 0.535156 "/></g></g></g><g fill="rgb(0%, 0%, 0%)" fill-opacity="1"><g transform="translate(197.147056, 295.529985)"><g><path d="M 5.375 -5.472656 C 7.195312 -5.902344 8.109375 -7.433594 7.878906 -9.132812 C 7.558594 -11.464844 6.0625 -12.382812 3.257812 -12 L -0.335938 -11.507812 L 1.214844 -0.167969 L 3.449219 -0.472656 L 2.992188 -3.828125 L 2.804688 -5.1875 L 2.820312 -5.191406 C 3.117188 -4.832031 3.460938 -4.484375 3.773438 -4.148438 L 6.871094 -0.941406 L 9.496094 -1.300781 Z M 2.632812 -6.449219 L 2.148438 -10 L 3.296875 -10.15625 C 4.722656 -10.351562 5.445312 -9.90625 5.605469 -8.722656 C 5.773438 -7.492188 5.191406 -6.800781 3.78125 -6.609375 Z M 2.632812 -6.449219 "/></g></g></g><g fill="rgb(0%, 0%, 0%)" fill-opacity="1"><g transform="translate(210.643306, 293.358252)"><g><path d="M 1.191406 -0.289062 L 3.386719 -0.816406 L 0.699219 -11.945312 L -1.496094 -11.414062 Z M 1.191406 -0.289062 "/></g></g></g><g fill="rgb(0%, 0%, 0%)" fill-opacity="1"><g transform="translate(218.831921, 291.315585)"><g><path d="M 4.660156 -8.125 C 5.273438 -8.753906 5.53125 -9.746094 5.160156 -10.8125 C 4.523438 -12.632812 2.921875 -13.148438 0.761719 -12.390625 L -2.617188 -11.210938 L 1.15625 -0.40625 L 4.738281 -1.65625 C 7.195312 -2.515625 8.070312 -4.066406 7.355469 -6.121094 C 6.882812 -7.464844 5.953125 -8.144531 4.660156 -8.125 Z M 3.230469 -9.789062 C 3.542969 -8.894531 3.117188 -8.226562 2.175781 -7.898438 L 1.019531 -7.492188 L 0.0703125 -10.210938 L 1.273438 -10.632812 C 2.246094 -10.972656 2.902344 -10.730469 3.230469 -9.789062 Z M 3.933594 -3.316406 L 2.636719 -2.863281 L 1.542969 -5.996094 L 2.839844 -6.449219 C 3.996094 -6.851562 4.78125 -6.539062 5.144531 -5.503906 C 5.523438 -4.425781 5.136719 -3.734375 3.933594 -3.316406 Z M 3.933594 -3.316406 "/></g></g></g><g fill="rgb(0%, 0%, 0%)" fill-opacity="1"><g transform="translate(231.378697, 286.664783)"><g><path d="M 2.289062 -3.25 L 0.921875 -6.039062 L 4.523438 -7.800781 L 3.71875 -9.445312 L 0.117188 -7.683594 L -1.066406 -10.109375 L 2.855469 -12.027344 L 2.023438 -13.730469 L -3.925781 -10.820312 L 1.101562 -0.539062 L 7.183594 -3.511719 L 6.34375 -5.230469 Z M 2.289062 -3.25 "/></g></g></g><g fill="rgb(0%, 0%, 0%)" fill-opacity="1"><g transform="translate(242.485908, 280.927483)"><g><path d="M 1.046875 -0.640625 L 2.96875 -1.820312 L -3.015625 -11.578125 L -4.941406 -10.398438 Z M 1.046875 -0.640625 "/></g></g></g><g fill="rgb(0%, 0%, 0%)" fill-opacity="1"><g transform="translate(249.657949, 276.462764)"><g><path d="M 1.980469 -7.410156 C 3.355469 -8.683594 3.394531 -10.464844 2.355469 -11.828125 C 0.925781 -13.703125 -0.828125 -13.761719 -3.078125 -12.046875 L -5.964844 -9.847656 L 0.976562 -0.742188 L 2.769531 -2.113281 L 0.71875 -4.804688 L -0.113281 -5.894531 L -0.101562 -5.90625 C 0.332031 -5.742188 0.804688 -5.609375 1.238281 -5.46875 L 5.515625 -4.203125 L 7.621094 -5.808594 Z M -0.886719 -6.910156 L -3.058594 -9.757812 L -2.136719 -10.460938 C -0.992188 -11.335938 -0.144531 -11.300781 0.582031 -10.351562 C 1.332031 -9.363281 1.167969 -8.476562 0.0351562 -7.613281 Z M -0.886719 -6.910156 "/></g></g></g><g fill="rgb(0%, 0%, 0%)" fill-opacity="1"><g transform="translate(260.524405, 267.91596)"><g><path d="M 4.15625 -3.820312 C 6.554688 -6.210938 5.808594 -9.183594 3.464844 -11.535156 C 1.125 -13.886719 -1.871094 -14.621094 -4.246094 -12.253906 C -6.621094 -9.886719 -5.898438 -6.914062 -3.542969 -4.550781 C -1.199219 -2.199219 1.773438 -1.441406 4.15625 -3.820312 Z M 2.761719 -5.222656 C 1.394531 -3.859375 -0.429688 -4.695312 -1.910156 -6.179688 C -3.375 -7.648438 -4.226562 -9.476562 -2.847656 -10.851562 C -1.46875 -12.226562 0.367188 -11.378906 1.832031 -9.90625 C 3.3125 -8.421875 4.140625 -6.59375 2.761719 -5.222656 Z M 2.761719 -5.222656 "/></g></g></g><path fill="rgb(0%, 0%, 0%)" d="M 84.816406 194.261719 C 82.535156 194.261719 80.691406 196.109375 80.691406 198.386719 C 80.691406 200.667969 82.535156 202.511719 84.816406 202.511719 C 87.09375 202.511719 88.941406 200.667969 88.941406 198.386719 C 88.941406 196.109375 87.09375 194.261719 84.816406 194.261719 " fill-opacity="1" fill-rule="nonzero"/><path fill="rgb(0%, 0%, 0%)" d="M 290.75 194.261719 C 288.46875 194.261719 286.625 196.109375 286.625 198.386719 C 286.625 200.667969 288.46875 202.511719 290.75 202.511719 C 293.027344 202.511719 294.875 200.667969 294.875 198.386719 C 294.875 196.109375 293.027344 194.261719 290.75 194.261719 " fill-opacity="1" fill-rule="nonzero"/><g clip-path="url(#id3)"><path fill="rgb(0%, 0%, 0%)" d="M 232.316406 154.890625 L 232.316406 130.199219 C 232.316406 129.929688 232.265625 129.667969 232.160156 129.417969 C 232.058594 129.167969 231.910156 128.945312 231.71875 128.753906 C 231.527344 128.5625 231.304688 128.414062 231.054688 128.3125 C 230.804688 128.207031 230.542969 128.15625 230.273438 128.15625 L 213.917969 128.15625 C 213.648438 128.15625 213.386719 128.207031 213.136719 128.3125 C 212.886719 128.414062 212.664062 128.5625 212.472656 128.753906 C 212.28125 128.945312 212.132812 129.167969 212.027344 129.417969 C 211.925781 129.667969 211.875 129.929688 211.875 130.199219 L 211.875 139.722656 L 188.566406 122.429688 C 188.203125 122.160156 187.796875 122.023438 187.339844 122.023438 C 186.886719 122.023438 186.476562 122.160156 186.113281 122.429688 L 122.738281 169.453125 C 122.386719 169.714844 122.144531 170.058594 122.011719 170.476562 C 121.882812 170.898438 121.886719 171.316406 122.023438 171.734375 C 122.164062 172.152344 122.414062 172.488281 122.769531 172.746094 C 123.125 173.003906 123.523438 173.132812 123.964844 173.132812 L 136.230469 173.132812 L 136.230469 250.820312 C 136.230469 251.089844 136.28125 251.351562 136.386719 251.601562 C 136.492188 251.851562 136.636719 252.074219 136.828125 252.265625 C 137.023438 252.457031 137.242188 252.605469 137.492188 252.707031 C 137.742188 252.8125 138.003906 252.863281 138.277344 252.863281 L 236.40625 252.863281 C 236.675781 252.863281 236.9375 252.8125 237.1875 252.707031 C 237.4375 252.605469 237.660156 252.457031 237.851562 252.265625 C 238.042969 252.074219 238.191406 251.851562 238.296875 251.601562 C 238.398438 251.351562 238.449219 251.089844 238.449219 250.820312 L 238.449219 173.132812 L 250.71875 173.132812 C 251.15625 173.132812 251.554688 173.003906 251.914062 172.746094 C 252.269531 172.488281 252.515625 172.152344 252.65625 171.734375 C 252.796875 171.316406 252.800781 170.898438 252.667969 170.476562 C 252.539062 170.058594 252.296875 169.714844 251.945312 169.453125 Z M 140.320312 248.773438 L 140.320312 244.6875 L 234.363281 244.6875 L 234.363281 248.773438 Z M 160.65625 238.132812 L 160.136719 235.535156 C 160.109375 235.402344 160.113281 235.269531 160.148438 235.140625 C 160.179688 235.011719 160.238281 234.894531 160.324219 234.789062 C 160.410156 234.6875 160.511719 234.605469 160.632812 234.550781 C 160.753906 234.492188 160.882812 234.464844 161.015625 234.464844 L 161.269531 234.464844 C 161.886719 235.398438 162.660156 236.175781 163.589844 236.800781 C 164.519531 237.421875 165.535156 237.839844 166.636719 238.054688 L 176.789062 239.988281 L 173.589844 240.601562 L 163.664062 240.601562 C 163.308594 240.601562 162.964844 240.542969 162.628906 240.421875 C 162.296875 240.300781 161.992188 240.128906 161.71875 239.90625 C 161.441406 239.679688 161.214844 239.414062 161.03125 239.109375 C 160.851562 238.804688 160.722656 238.480469 160.65625 238.132812 Z M 159.960938 199.753906 L 166.898438 206.6875 L 166.898438 214.710938 L 160.390625 207.273438 C 159.941406 206.761719 159.585938 206.1875 159.328125 205.558594 C 159.070312 204.925781 158.921875 204.269531 158.882812 203.589844 C 158.84375 202.90625 158.914062 202.238281 159.101562 201.582031 C 159.285156 200.925781 159.570312 200.316406 159.960938 199.753906 Z M 214.722656 199.753906 C 215.109375 200.316406 215.398438 200.925781 215.582031 201.582031 C 215.765625 202.238281 215.839844 202.90625 215.800781 203.589844 C 215.761719 204.269531 215.613281 204.925781 215.355469 205.558594 C 215.097656 206.191406 214.742188 206.761719 214.292969 207.277344 L 207.785156 214.710938 L 207.785156 206.6875 Z M 211.503906 230.375 L 201.933594 230.375 L 195.355469 228.550781 L 206.054688 225.578125 C 206.402344 225.476562 206.757812 225.425781 207.117188 225.414062 C 207.480469 225.402344 207.835938 225.4375 208.1875 225.519531 C 208.539062 225.597656 208.878906 225.71875 209.199219 225.886719 C 209.523438 226.050781 209.816406 226.25 210.089844 226.488281 C 210.359375 226.726562 210.597656 226.996094 210.800781 227.296875 C 211.003906 227.59375 211.167969 227.914062 211.292969 228.25 C 211.417969 228.589844 211.496094 228.941406 211.53125 229.300781 C 211.570312 229.660156 211.558594 230.019531 211.503906 230.375 Z M 203.695312 220.152344 L 170.984375 220.152344 L 170.984375 216.066406 L 203.695312 216.066406 Z M 195.582031 224.242188 L 187.71875 226.425781 L 179.851562 224.242188 Z M 203.695312 211.976562 L 170.984375 211.976562 L 170.984375 193.578125 C 170.984375 193.304688 171.039062 193.042969 171.140625 192.792969 C 171.246094 192.542969 171.394531 192.324219 171.585938 192.128906 C 171.777344 191.9375 171.996094 191.792969 172.246094 191.6875 C 172.5 191.582031 172.757812 191.53125 173.03125 191.53125 L 201.652344 191.53125 C 201.921875 191.53125 202.183594 191.582031 202.433594 191.6875 C 202.683594 191.792969 202.90625 191.9375 203.097656 192.128906 C 203.289062 192.324219 203.4375 192.542969 203.539062 192.792969 C 203.644531 193.042969 203.695312 193.304688 203.695312 193.578125 Z M 169.378906 225.578125 L 201.105469 234.390625 C 201.28125 234.4375 201.464844 234.464844 201.652344 234.464844 L 214.417969 234.464844 C 214.554688 234.464844 214.679688 234.492188 214.800781 234.550781 C 214.925781 234.605469 215.027344 234.6875 215.113281 234.792969 C 215.199219 234.894531 215.257812 235.011719 215.289062 235.140625 C 215.324219 235.273438 215.324219 235.402344 215.300781 235.535156 L 214.78125 238.132812 C 214.710938 238.480469 214.582031 238.804688 214.398438 239.109375 C 214.21875 239.410156 213.988281 239.675781 213.714844 239.898438 C 213.441406 240.125 213.136719 240.296875 212.804688 240.417969 C 212.46875 240.535156 212.125 240.597656 211.769531 240.597656 L 201.855469 240.597656 L 167.398438 234.035156 C 167.109375 233.984375 166.832031 233.902344 166.558594 233.789062 C 166.285156 233.679688 166.027344 233.542969 165.785156 233.378906 C 165.539062 233.214844 165.316406 233.03125 165.109375 232.820312 C 164.902344 232.613281 164.71875 232.382812 164.558594 232.136719 C 164.398438 231.890625 164.261719 231.632812 164.15625 231.359375 C 164.046875 231.085938 163.96875 230.804688 163.917969 230.515625 C 163.867188 230.226562 163.84375 229.933594 163.851562 229.640625 C 163.859375 229.347656 163.898438 229.058594 163.964844 228.773438 C 164.03125 228.484375 164.128906 228.210938 164.25 227.941406 C 164.371094 227.675781 164.519531 227.425781 164.695312 227.1875 C 164.871094 226.949219 165.066406 226.734375 165.28125 226.535156 C 165.5 226.339844 165.734375 226.167969 165.988281 226.019531 C 166.242188 225.867188 166.507812 225.746094 166.785156 225.652344 C 167.0625 225.554688 167.347656 225.488281 167.640625 225.449219 C 167.929688 225.414062 168.222656 225.402344 168.515625 225.425781 C 168.808594 225.445312 169.097656 225.496094 169.378906 225.578125 Z M 236.40625 169.042969 C 236.136719 169.042969 235.875 169.09375 235.625 169.199219 C 235.375 169.304688 235.152344 169.449219 234.960938 169.640625 C 234.769531 169.835938 234.621094 170.054688 234.515625 170.304688 C 234.414062 170.554688 234.363281 170.816406 234.363281 171.089844 L 234.363281 240.597656 L 218.210938 240.597656 C 218.476562 240.066406 218.667969 239.511719 218.792969 238.933594 L 219.3125 236.339844 C 219.375 236.027344 219.410156 235.707031 219.410156 235.390625 C 219.410156 235.070312 219.382812 234.753906 219.324219 234.4375 C 219.265625 234.125 219.175781 233.820312 219.058594 233.523438 C 218.941406 233.226562 218.792969 232.941406 218.621094 232.671875 C 218.449219 232.402344 218.253906 232.152344 218.03125 231.921875 C 217.8125 231.691406 217.570312 231.484375 217.308594 231.296875 C 217.050781 231.113281 216.773438 230.957031 216.480469 230.824219 C 216.191406 230.691406 215.890625 230.589844 215.578125 230.515625 C 215.636719 229.957031 215.636719 229.398438 215.582031 228.839844 C 215.527344 228.28125 215.414062 227.730469 215.25 227.195312 C 215.082031 226.65625 214.863281 226.144531 214.59375 225.652344 C 214.320312 225.160156 214.003906 224.699219 213.640625 224.269531 C 213.277344 223.84375 212.871094 223.453125 212.429688 223.109375 C 211.988281 222.761719 211.515625 222.464844 211.011719 222.214844 C 210.507812 221.964844 209.984375 221.765625 209.441406 221.621094 C 208.898438 221.476562 208.347656 221.390625 207.785156 221.359375 L 207.785156 220.921875 L 217.367188 209.96875 C 217.742188 209.542969 218.082031 209.085938 218.378906 208.605469 C 218.675781 208.121094 218.933594 207.617188 219.148438 207.089844 C 219.363281 206.566406 219.53125 206.023438 219.65625 205.472656 C 219.78125 204.917969 219.859375 204.355469 219.890625 203.789062 C 219.917969 203.222656 219.902344 202.65625 219.839844 202.09375 C 219.777344 201.527344 219.664062 200.972656 219.507812 200.425781 C 219.351562 199.882812 219.152344 199.351562 218.90625 198.839844 C 218.660156 198.328125 218.375 197.839844 218.050781 197.375 L 209.859375 185.671875 C 209.386719 184.996094 208.839844 184.390625 208.222656 183.847656 C 207.605469 183.304688 206.929688 182.84375 206.199219 182.464844 C 205.46875 182.085938 204.707031 181.796875 203.90625 181.601562 C 203.109375 181.40625 202.296875 181.308594 201.476562 181.308594 L 193.472656 181.332031 L 193.472656 179.648438 C 194.738281 178.917969 195.839844 177.988281 196.773438 176.863281 C 197.707031 175.738281 198.417969 174.484375 198.902344 173.109375 C 199.523438 173.074219 200.121094 172.933594 200.691406 172.683594 C 201.257812 172.433594 201.765625 172.089844 202.210938 171.652344 C 202.652344 171.214844 203.003906 170.714844 203.265625 170.152344 C 203.527344 169.585938 203.679688 168.992188 203.722656 168.371094 C 203.765625 167.75 203.695312 167.144531 203.515625 166.546875 C 203.335938 165.953125 203.058594 165.40625 202.679688 164.914062 C 202.300781 164.421875 201.847656 164.011719 201.316406 163.683594 C 200.789062 163.355469 200.21875 163.132812 199.605469 163.015625 L 199.605469 160 C 200.519531 159.601562 201.351562 159.082031 202.113281 158.441406 C 202.871094 157.800781 203.523438 157.066406 204.066406 156.234375 C 204.613281 155.402344 205.027344 154.511719 205.3125 153.5625 C 205.597656 152.609375 205.738281 151.636719 205.742188 150.644531 L 205.742188 144.511719 C 205.742188 144.238281 205.6875 143.980469 205.585938 143.726562 C 205.480469 143.476562 205.332031 143.257812 205.140625 143.066406 C 204.949219 142.875 204.730469 142.726562 204.476562 142.621094 C 204.226562 142.519531 203.96875 142.464844 203.695312 142.464844 L 185.488281 142.464844 C 183.589844 142.457031 181.785156 142.867188 180.074219 143.691406 C 179.824219 143.808594 179.609375 143.964844 179.421875 144.167969 C 179.238281 144.371094 179.097656 144.601562 179.007812 144.859375 C 178.914062 145.117188 178.875 145.382812 178.890625 145.660156 C 178.90625 145.933594 178.972656 146.191406 179.089844 146.441406 C 179.210938 146.6875 179.375 146.902344 179.578125 147.082031 C 179.785156 147.265625 180.019531 147.398438 180.277344 147.488281 C 180.539062 147.574219 180.804688 147.609375 181.078125 147.589844 C 181.351562 147.570312 181.609375 147.496094 181.855469 147.371094 C 183.003906 146.820312 184.214844 146.546875 185.488281 146.554688 L 201.652344 146.554688 L 201.652344 150.644531 C 201.652344 151.046875 201.613281 151.445312 201.535156 151.839844 C 201.457031 152.234375 201.339844 152.617188 201.183594 152.992188 C 201.03125 153.363281 200.839844 153.714844 200.617188 154.050781 C 200.394531 154.386719 200.140625 154.695312 199.855469 154.980469 C 199.570312 155.265625 199.261719 155.519531 198.925781 155.742188 C 198.589844 155.96875 198.238281 156.15625 197.867188 156.308594 C 197.492188 156.464844 197.109375 156.582031 196.714844 156.660156 C 196.320312 156.738281 195.921875 156.777344 195.519531 156.777344 C 195.117188 156.777344 194.71875 156.738281 194.320312 156.660156 C 193.925781 156.582031 193.542969 156.464844 193.171875 156.308594 C 192.800781 156.15625 192.445312 155.96875 192.109375 155.742188 C 191.777344 155.519531 191.464844 155.265625 191.179688 154.980469 C 190.898438 154.695312 190.644531 154.386719 190.417969 154.050781 C 190.195312 153.714844 190.007812 153.363281 189.851562 152.992188 C 189.699219 152.617188 189.582031 152.234375 189.503906 151.839844 C 189.425781 151.445312 189.386719 151.046875 189.386719 150.644531 C 189.386719 150.371094 189.332031 150.113281 189.230469 149.863281 C 189.125 149.609375 188.976562 149.390625 188.785156 149.199219 C 188.59375 149.007812 188.375 148.859375 188.125 148.753906 C 187.871094 148.652344 187.613281 148.601562 187.339844 148.601562 C 187.070312 148.601562 186.808594 148.652344 186.558594 148.753906 C 186.308594 148.859375 186.085938 149.007812 185.894531 149.199219 C 185.703125 149.390625 185.554688 149.609375 185.453125 149.863281 C 185.347656 150.113281 185.296875 150.371094 185.296875 150.644531 C 185.296875 151.359375 185.375 152.066406 185.527344 152.769531 C 184.925781 152.863281 184.359375 153.058594 183.828125 153.351562 C 183.296875 153.648438 182.835938 154.027344 182.441406 154.488281 C 182.042969 154.949219 181.742188 155.464844 181.527344 156.035156 C 181.316406 156.601562 181.210938 157.191406 181.207031 157.800781 C 181.207031 157.933594 181.183594 158.066406 181.128906 158.191406 C 181.078125 158.316406 181.003906 158.425781 180.910156 158.523438 C 180.8125 158.617188 180.703125 158.691406 180.578125 158.742188 C 180.453125 158.796875 180.320312 158.820312 180.183594 158.820312 C 179.046875 158.824219 178.023438 159.175781 177.117188 159.867188 L 177.117188 154.925781 C 177.117188 153.632812 177.398438 152.40625 177.96875 151.246094 C 178.089844 151 178.15625 150.742188 178.171875 150.472656 C 178.191406 150.203125 178.152344 149.9375 178.066406 149.679688 C 177.976562 149.425781 177.84375 149.195312 177.664062 148.992188 C 177.484375 148.785156 177.273438 148.625 177.027344 148.507812 C 176.785156 148.386719 176.527344 148.320312 176.253906 148.304688 C 175.984375 148.285156 175.71875 148.320312 175.464844 148.410156 C 175.207031 148.5 174.976562 148.632812 174.773438 148.8125 C 174.570312 148.992188 174.410156 149.203125 174.289062 149.449219 C 173.441406 151.175781 173.023438 153 173.03125 154.925781 L 173.03125 163.957031 C 172.613281 164.269531 172.25 164.636719 171.945312 165.058594 C 171.640625 165.480469 171.40625 165.941406 171.242188 166.433594 C 171.078125 166.929688 170.992188 167.4375 170.984375 167.960938 C 170.980469 168.480469 171.050781 168.992188 171.199219 169.492188 C 171.351562 169.992188 171.574219 170.457031 171.867188 170.886719 C 172.160156 171.316406 172.511719 171.695312 172.921875 172.015625 C 173.328125 172.339844 173.777344 172.59375 174.265625 172.777344 C 174.753906 172.964844 175.257812 173.070312 175.777344 173.101562 C 176.265625 174.480469 176.976562 175.734375 177.910156 176.859375 C 178.84375 177.984375 179.941406 178.914062 181.207031 179.648438 L 181.207031 181.308594 C 181.207031 181.929688 181.296875 182.535156 181.476562 183.125 C 181.660156 183.714844 181.921875 184.269531 182.273438 184.777344 C 182.621094 185.289062 183.039062 185.738281 183.523438 186.121094 C 184.007812 186.503906 184.539062 186.808594 185.117188 187.03125 C 185.695312 187.253906 186.289062 187.386719 186.90625 187.429688 C 187.527344 187.46875 188.136719 187.417969 188.738281 187.273438 C 189.339844 187.132812 189.90625 186.902344 190.4375 186.585938 C 190.96875 186.269531 191.441406 185.882812 191.855469 185.421875 L 201.480469 185.398438 C 202.480469 185.398438 203.425781 185.628906 204.3125 186.09375 C 205.199219 186.554688 205.933594 187.195312 206.507812 188.011719 L 212.339844 196.351562 L 207.785156 200.90625 L 207.785156 193.578125 C 207.785156 193.171875 207.746094 192.773438 207.667969 192.378906 C 207.589844 191.984375 207.472656 191.601562 207.316406 191.230469 C 207.164062 190.855469 206.976562 190.503906 206.75 190.167969 C 206.527344 189.832031 206.273438 189.523438 205.988281 189.238281 C 205.703125 188.953125 205.394531 188.699219 205.058594 188.476562 C 204.722656 188.253906 204.371094 188.0625 204 187.910156 C 203.625 187.753906 203.242188 187.640625 202.847656 187.5625 C 202.453125 187.480469 202.054688 187.441406 201.652344 187.441406 L 173.03125 187.441406 C 172.628906 187.441406 172.230469 187.480469 171.832031 187.5625 C 171.4375 187.640625 171.054688 187.753906 170.683594 187.910156 C 170.3125 188.0625 169.957031 188.253906 169.621094 188.476562 C 169.289062 188.699219 168.976562 188.953125 168.691406 189.238281 C 168.410156 189.523438 168.152344 189.835938 167.929688 190.167969 C 167.707031 190.503906 167.519531 190.855469 167.363281 191.230469 C 167.210938 191.601562 167.09375 191.984375 167.015625 192.378906 C 166.9375 192.773438 166.898438 193.171875 166.898438 193.578125 L 166.898438 200.90625 L 162.339844 196.351562 L 168.175781 188.011719 C 168.746094 187.199219 169.472656 186.558594 170.355469 186.097656 C 171.238281 185.636719 172.179688 185.402344 173.175781 185.398438 L 175.628906 185.425781 L 175.652344 185.425781 C 175.925781 185.429688 176.183594 185.378906 176.4375 185.277344 C 176.6875 185.171875 176.910156 185.027344 177.101562 184.835938 C 177.292969 184.644531 177.441406 184.425781 177.546875 184.175781 C 177.652344 183.925781 177.707031 183.667969 177.707031 183.394531 C 177.710938 183.125 177.660156 182.863281 177.558594 182.613281 C 177.457031 182.359375 177.308594 182.140625 177.117188 181.945312 C 176.929688 181.753906 176.707031 181.605469 176.457031 181.5 C 176.207031 181.394531 175.949219 181.339844 175.675781 181.339844 L 173.199219 181.308594 C 172.378906 181.308594 171.566406 181.40625 170.769531 181.601562 C 169.96875 181.796875 169.203125 182.085938 168.476562 182.464844 C 167.746094 182.84375 167.070312 183.304688 166.453125 183.847656 C 165.835938 184.390625 165.289062 184.996094 164.816406 185.671875 L 156.625 197.375 C 156.300781 197.839844 156.015625 198.328125 155.769531 198.839844 C 155.523438 199.351562 155.324219 199.882812 155.167969 200.425781 C 155.011719 200.972656 154.898438 201.527344 154.835938 202.09375 C 154.773438 202.65625 154.753906 203.222656 154.785156 203.789062 C 154.816406 204.355469 154.894531 204.917969 155.019531 205.472656 C 155.144531 206.023438 155.3125 206.566406 155.527344 207.089844 C 155.742188 207.617188 155.996094 208.121094 156.296875 208.605469 C 156.59375 209.085938 156.933594 209.542969 157.308594 209.96875 L 166.898438 220.921875 L 166.898438 221.46875 C 165.554688 221.675781 164.335938 222.179688 163.234375 222.976562 C 162.136719 223.773438 161.28125 224.78125 160.667969 225.992188 C 159.964844 227.421875 159.691406 228.929688 159.851562 230.515625 C 159.539062 230.589844 159.238281 230.691406 158.949219 230.824219 C 158.65625 230.957031 158.382812 231.113281 158.121094 231.300781 C 157.859375 231.484375 157.621094 231.691406 157.398438 231.921875 C 157.179688 232.15625 156.980469 232.40625 156.808594 232.671875 C 156.636719 232.941406 156.492188 233.226562 156.375 233.523438 C 156.257812 233.820312 156.167969 234.125 156.109375 234.4375 C 156.050781 234.753906 156.019531 235.070312 156.023438 235.390625 C 156.027344 235.710938 156.058594 236.027344 156.121094 236.339844 L 156.640625 238.933594 C 156.765625 239.511719 156.960938 240.066406 157.226562 240.597656 L 140.320312 240.597656 L 140.320312 171.089844 C 140.320312 170.816406 140.269531 170.554688 140.164062 170.304688 C 140.058594 170.054688 139.914062 169.835938 139.722656 169.640625 C 139.53125 169.449219 139.308594 169.304688 139.058594 169.199219 C 138.808594 169.09375 138.546875 169.042969 138.277344 169.042969 L 130.152344 169.042969 L 187.339844 126.613281 L 212.691406 145.421875 C 213 145.652344 213.347656 145.785156 213.734375 145.820312 C 214.121094 145.855469 214.484375 145.785156 214.832031 145.613281 C 215.179688 145.441406 215.453125 145.1875 215.65625 144.859375 C 215.859375 144.53125 215.960938 144.171875 215.960938 143.785156 L 215.960938 132.246094 L 228.230469 132.246094 L 228.230469 155.921875 C 228.230469 156.601562 228.5 157.148438 229.046875 157.554688 L 244.53125 169.042969 Z M 186.320312 156.777344 L 187.394531 156.777344 C 187.867188 157.410156 188.40625 157.980469 189.007812 158.488281 C 189.613281 158.992188 190.269531 159.425781 190.972656 159.78125 C 191.679688 160.132812 192.414062 160.402344 193.183594 160.585938 C 193.949219 160.769531 194.730469 160.863281 195.519531 160.867188 L 195.519531 169.042969 C 195.519531 169.582031 195.464844 170.113281 195.359375 170.640625 C 195.257812 171.164062 195.101562 171.675781 194.894531 172.171875 C 194.691406 172.667969 194.4375 173.140625 194.140625 173.585938 C 193.84375 174.03125 193.503906 174.445312 193.125 174.824219 C 192.742188 175.207031 192.332031 175.542969 191.882812 175.84375 C 191.4375 176.140625 190.964844 176.394531 190.46875 176.597656 C 189.972656 176.804688 189.460938 176.960938 188.9375 177.0625 C 188.410156 177.167969 187.878906 177.222656 187.339844 177.222656 C 186.804688 177.222656 186.273438 177.167969 185.746094 177.0625 C 185.21875 176.960938 184.707031 176.804688 184.210938 176.597656 C 183.714844 176.394531 183.242188 176.140625 182.796875 175.84375 C 182.351562 175.542969 181.9375 175.207031 181.558594 174.824219 C 181.179688 174.445312 180.839844 174.03125 180.542969 173.585938 C 180.242188 173.140625 179.992188 172.667969 179.785156 172.171875 C 179.582031 171.675781 179.425781 171.164062 179.320312 170.640625 C 179.214844 170.113281 179.164062 169.582031 179.164062 169.042969 L 179.164062 163.933594 C 179.164062 163.796875 179.1875 163.667969 179.242188 163.542969 C 179.292969 163.417969 179.367188 163.304688 179.460938 163.210938 C 179.558594 163.113281 179.667969 163.039062 179.792969 162.988281 C 179.917969 162.9375 180.050781 162.910156 180.183594 162.910156 C 180.519531 162.910156 180.851562 162.878906 181.183594 162.8125 C 181.511719 162.746094 181.832031 162.648438 182.140625 162.519531 C 182.453125 162.394531 182.746094 162.234375 183.023438 162.050781 C 183.304688 161.863281 183.5625 161.652344 183.800781 161.414062 C 184.035156 161.175781 184.25 160.917969 184.433594 160.640625 C 184.621094 160.359375 184.777344 160.066406 184.90625 159.753906 C 185.035156 159.445312 185.132812 159.125 185.199219 158.796875 C 185.265625 158.46875 185.296875 158.136719 185.296875 157.800781 C 185.296875 157.664062 185.324219 157.535156 185.375 157.40625 C 185.425781 157.28125 185.5 157.171875 185.597656 157.078125 C 185.691406 156.980469 185.800781 156.90625 185.925781 156.855469 C 186.050781 156.804688 186.183594 156.777344 186.320312 156.777344 Z M 185.296875 181.125 C 186.660156 181.375 188.023438 181.375 189.386719 181.125 L 189.386719 181.308594 C 189.386719 181.582031 189.332031 181.839844 189.230469 182.09375 C 189.125 182.34375 188.976562 182.5625 188.785156 182.753906 C 188.59375 182.945312 188.375 183.09375 188.125 183.199219 C 187.871094 183.300781 187.613281 183.355469 187.339844 183.355469 C 187.070312 183.355469 186.808594 183.300781 186.558594 183.199219 C 186.308594 183.09375 186.085938 182.945312 185.894531 182.753906 C 185.703125 182.5625 185.554688 182.34375 185.453125 182.09375 C 185.347656 181.839844 185.296875 181.582031 185.296875 181.308594 Z M 185.296875 181.125 " fill-opacity="1" fill-rule="nonzero"/></g><path fill="rgb(0%, 0%, 0%)" d="M 187.339844 195.621094 C 187.070312 195.621094 186.808594 195.671875 186.558594 195.777344 C 186.308594 195.878906 186.085938 196.027344 185.894531 196.21875 C 185.703125 196.410156 185.554688 196.632812 185.453125 196.882812 C 185.347656 197.132812 185.296875 197.394531 185.296875 197.664062 C 185.296875 197.9375 185.347656 198.195312 185.453125 198.449219 C 185.554688 198.699219 185.703125 198.917969 185.894531 199.109375 C 186.085938 199.300781 186.308594 199.449219 186.558594 199.554688 C 186.808594 199.65625 187.070312 199.710938 187.339844 199.710938 C 187.613281 199.710938 187.871094 199.761719 188.125 199.863281 C 188.375 199.96875 188.59375 200.117188 188.785156 200.308594 C 188.976562 200.5 189.125 200.722656 189.230469 200.972656 C 189.332031 201.222656 189.386719 201.484375 189.386719 201.753906 C 189.386719 202.023438 189.332031 202.285156 189.230469 202.535156 C 189.125 202.785156 188.976562 203.007812 188.785156 203.199219 C 188.59375 203.390625 188.375 203.539062 188.125 203.644531 C 187.871094 203.746094 187.613281 203.796875 187.339844 203.796875 C 187.070312 203.796875 186.808594 203.746094 186.558594 203.644531 C 186.308594 203.539062 186.085938 203.390625 185.894531 203.199219 C 185.703125 203.007812 185.554688 202.785156 185.453125 202.535156 C 185.347656 202.285156 185.296875 202.023438 185.296875 201.753906 C 185.296875 201.484375 185.246094 201.222656 185.140625 200.972656 C 185.035156 200.722656 184.890625 200.5 184.699219 200.308594 C 184.507812 200.117188 184.285156 199.96875 184.035156 199.863281 C 183.785156 199.761719 183.523438 199.710938 183.253906 199.710938 C 182.980469 199.710938 182.71875 199.761719 182.46875 199.863281 C 182.21875 199.96875 182 200.117188 181.804688 200.308594 C 181.613281 200.5 181.46875 200.722656 181.363281 200.972656 C 181.257812 201.222656 181.207031 201.484375 181.207031 201.753906 C 181.207031 202.15625 181.246094 202.554688 181.324219 202.949219 C 181.402344 203.34375 181.519531 203.730469 181.675781 204.101562 C 181.828125 204.472656 182.015625 204.828125 182.242188 205.160156 C 182.464844 205.496094 182.71875 205.804688 183.003906 206.089844 C 183.289062 206.375 183.597656 206.628906 183.933594 206.851562 C 184.269531 207.078125 184.621094 207.265625 184.992188 207.421875 C 185.367188 207.574219 185.75 207.691406 186.144531 207.769531 C 186.539062 207.847656 186.9375 207.886719 187.339844 207.886719 C 187.742188 207.886719 188.140625 207.847656 188.539062 207.769531 C 188.933594 207.691406 189.316406 207.574219 189.6875 207.421875 C 190.058594 207.265625 190.414062 207.078125 190.75 206.851562 C 191.082031 206.628906 191.394531 206.375 191.675781 206.089844 C 191.960938 205.804688 192.214844 205.496094 192.441406 205.160156 C 192.664062 204.828125 192.851562 204.472656 193.007812 204.101562 C 193.160156 203.730469 193.277344 203.34375 193.355469 202.949219 C 193.433594 202.554688 193.472656 202.15625 193.472656 201.753906 C 193.472656 201.351562 193.433594 200.953125 193.355469 200.558594 C 193.277344 200.164062 193.160156 199.777344 193.007812 199.40625 C 192.851562 199.035156 192.664062 198.679688 192.441406 198.347656 C 192.214844 198.011719 191.960938 197.703125 191.675781 197.417969 C 191.394531 197.132812 191.082031 196.878906 190.75 196.652344 C 190.414062 196.429688 190.058594 196.242188 189.6875 196.085938 C 189.316406 195.933594 188.933594 195.816406 188.539062 195.738281 C 188.140625 195.660156 187.742188 195.621094 187.339844 195.621094 Z M 187.339844 195.621094 " fill-opacity="1" fill-rule="nonzero"/></svg>